<?xml version="1.0" encoding="UTF-8" standalone="no"?>
<!DOCTYPE svg PUBLIC "-//W3C//DTD SVG 1.1//EN"
 "http://www.w3.org/Graphics/SVG/1.1/DTD/svg11.dtd">
<!-- Generated by graphviz version 14.1.1 (20251213.1925)
 -->
<!-- Title: InheritanceTree Pages: 1 -->
<svg width="456pt" height="933pt"
 viewBox="0.00 0.00 456.00 933.00" xmlns="http://www.w3.org/2000/svg" xmlns:xlink="http://www.w3.org/1999/xlink">
<g id="graph0" class="graph" transform="scale(1 1) rotate(0) translate(4 928.5)">
<title>InheritanceTree</title>
<polygon fill="white" stroke="none" points="-4,4 -4,-928.5 451.5,-928.5 451.5,4 -4,4"/>
<text xml:space="preserve" text-anchor="middle" x="223.75" y="-7.2" font-family="Times New Roman,serif" font-size="14.00">simple_social &#45; Inheritance Hierarchy</text>
<!-- SOCIAL_DATABASE -->
<g id="node1" class="node">
<title>SOCIAL_DATABASE</title>
<path fill="none" stroke="black" d="M141.62,-60.5C141.62,-60.5 24.38,-60.5 24.38,-60.5 18.38,-60.5 12.38,-54.5 12.38,-48.5 12.38,-48.5 12.38,-36.5 12.38,-36.5 12.38,-30.5 18.38,-24.5 24.38,-24.5 24.38,-24.5 141.62,-24.5 141.62,-24.5 147.62,-24.5 153.62,-30.5 153.62,-36.5 153.62,-36.5 153.62,-48.5 153.62,-48.5 153.62,-54.5 147.62,-60.5 141.62,-60.5"/>
<text xml:space="preserve" text-anchor="middle" x="83" y="-37.45" font-family="Times New Roman,serif" font-size="14.00">SOCIAL_DATABASE</text>
</g>
<!-- SIMPLE_SQL_DATABASE -->
<g id="node2" class="node">
<title>SIMPLE_SQL_DATABASE</title>
<path fill="none" stroke="black" d="M435.5,-60.5C435.5,-60.5 286,-60.5 286,-60.5 280,-60.5 274,-54.5 274,-48.5 274,-48.5 274,-36.5 274,-36.5 274,-30.5 280,-24.5 286,-24.5 286,-24.5 435.5,-24.5 435.5,-24.5 441.5,-24.5 447.5,-30.5 447.5,-36.5 447.5,-36.5 447.5,-48.5 447.5,-48.5 447.5,-54.5 441.5,-60.5 435.5,-60.5"/>
<text xml:space="preserve" text-anchor="middle" x="360.75" y="-37.45" font-family="Times New Roman,serif" font-size="14.00">SIMPLE_SQL_DATABASE</text>
</g>
<!-- SOCIAL_DATABASE&#45;&gt;SIMPLE_SQL_DATABASE -->
<g id="edge1" class="edge">
<title>SOCIAL_DATABASE&#45;&gt;SIMPLE_SQL_DATABASE</title>
<path fill="none" stroke="black" d="M153.81,-42.5C153.81,-42.5 262.17,-42.5 262.17,-42.5"/>
<polygon fill="none" stroke="black" points="262.17,-46 272.17,-42.5 262.17,-39 262.17,-46"/>
</g>
<!-- SOCIAL_DRAFT -->
<g id="node3" class="node">
<title>SOCIAL_DRAFT</title>
<path fill="none" stroke="black" d="M128.88,-132.5C128.88,-132.5 37.12,-132.5 37.12,-132.5 31.12,-132.5 25.12,-126.5 25.12,-120.5 25.12,-120.5 25.12,-108.5 25.12,-108.5 25.12,-102.5 31.12,-96.5 37.12,-96.5 37.12,-96.5 128.88,-96.5 128.88,-96.5 134.88,-96.5 140.88,-102.5 140.88,-108.5 140.88,-108.5 140.88,-120.5 140.88,-120.5 140.88,-126.5 134.88,-132.5 128.88,-132.5"/>
<text xml:space="preserve" text-anchor="middle" x="83" y="-109.45" font-family="Times New Roman,serif" font-size="14.00">SOCIAL_DRAFT</text>
</g>
<!-- SOCIAL_ENGAGEMENT -->
<g id="node4" class="node">
<title>SOCIAL_ENGAGEMENT</title>
<path fill="none" stroke="black" d="M154,-204.5C154,-204.5 12,-204.5 12,-204.5 6,-204.5 0,-198.5 0,-192.5 0,-192.5 0,-180.5 0,-180.5 0,-174.5 6,-168.5 12,-168.5 12,-168.5 154,-168.5 154,-168.5 160,-168.5 166,-174.5 166,-180.5 166,-180.5 166,-192.5 166,-192.5 166,-198.5 160,-204.5 154,-204.5"/>
<text xml:space="preserve" text-anchor="middle" x="83" y="-181.45" font-family="Times New Roman,serif" font-size="14.00">SOCIAL_ENGAGEMENT</text>
</g>
<!-- SOCIAL_OPPORTUNITY -->
<g id="node5" class="node">
<title>SOCIAL_OPPORTUNITY</title>
<path fill="none" stroke="black" d="M153.25,-276.5C153.25,-276.5 12.75,-276.5 12.75,-276.5 6.75,-276.5 0.75,-270.5 0.75,-264.5 0.75,-264.5 0.75,-252.5 0.75,-252.5 0.75,-246.5 6.75,-240.5 12.75,-240.5 12.75,-240.5 153.25,-240.5 153.25,-240.5 159.25,-240.5 165.25,-246.5 165.25,-252.5 165.25,-252.5 165.25,-264.5 165.25,-264.5 165.25,-270.5 159.25,-276.5 153.25,-276.5"/>
<text xml:space="preserve" text-anchor="middle" x="83" y="-253.45" font-family="Times New Roman,serif" font-size="14.00">SOCIAL_OPPORTUNITY</text>
</g>
<!-- SOCIAL_PLATFORM -->
<g id="node6" class="node">
<title>SOCIAL_PLATFORM</title>
<path fill="none" stroke="black" d="M142.38,-348.5C142.38,-348.5 23.62,-348.5 23.62,-348.5 17.62,-348.5 11.62,-342.5 11.62,-336.5 11.62,-336.5 11.62,-324.5 11.62,-324.5 11.62,-318.5 17.62,-312.5 23.62,-312.5 23.62,-312.5 142.38,-312.5 142.38,-312.5 148.38,-312.5 154.38,-318.5 154.38,-324.5 154.38,-324.5 154.38,-336.5 154.38,-336.5 154.38,-342.5 148.38,-348.5 142.38,-348.5"/>
<text xml:space="preserve" text-anchor="middle" x="83" y="-325.45" font-family="Times New Roman,serif" font-size="14.00">SOCIAL_PLATFORM</text>
</g>
<!-- SOCIAL_REPLY -->
<g id="node7" class="node">
<title>SOCIAL_REPLY</title>
<path fill="none" stroke="black" d="M127.75,-420.5C127.75,-420.5 38.25,-420.5 38.25,-420.5 32.25,-420.5 26.25,-414.5 26.25,-408.5 26.25,-408.5 26.25,-396.5 26.25,-396.5 26.25,-390.5 32.25,-384.5 38.25,-384.5 38.25,-384.5 127.75,-384.5 127.75,-384.5 133.75,-384.5 139.75,-390.5 139.75,-396.5 139.75,-396.5 139.75,-408.5 139.75,-408.5 139.75,-414.5 133.75,-420.5 127.75,-420.5"/>
<text xml:space="preserve" text-anchor="middle" x="83" y="-397.45" font-family="Times New Roman,serif" font-size="14.00">SOCIAL_REPLY</text>
</g>
<!-- SOCIAL_SETTINGS -->
<g id="node8" class="node">
<title>SOCIAL_SETTINGS</title>
<path fill="none" stroke="black" d="M138.62,-492.5C138.62,-492.5 27.38,-492.5 27.38,-492.5 21.38,-492.5 15.38,-486.5 15.38,-480.5 15.38,-480.5 15.38,-468.5 15.38,-468.5 15.38,-462.5 21.38,-456.5 27.38,-456.5 27.38,-456.5 138.62,-456.5 138.62,-456.5 144.62,-456.5 150.62,-462.5 150.62,-468.5 150.62,-468.5 150.62,-480.5 150.62,-480.5 150.62,-486.5 144.62,-492.5 138.62,-492.5"/>
<text xml:space="preserve" text-anchor="middle" x="83" y="-469.45" font-family="Times New Roman,serif" font-size="14.00">SOCIAL_SETTINGS</text>
</g>
<!-- REDDIT_API -->
<g id="node9" class="node">
<title>REDDIT_API</title>
<path fill="none" stroke="black" d="M118,-564.5C118,-564.5 48,-564.5 48,-564.5 42,-564.5 36,-558.5 36,-552.5 36,-552.5 36,-540.5 36,-540.5 36,-534.5 42,-528.5 48,-528.5 48,-528.5 118,-528.5 118,-528.5 124,-528.5 130,-534.5 130,-540.5 130,-540.5 130,-552.5 130,-552.5 130,-558.5 124,-564.5 118,-564.5"/>
<text xml:space="preserve" text-anchor="middle" x="83" y="-541.45" font-family="Times New Roman,serif" font-size="14.00">REDDIT_API</text>
</g>
<!-- SOCIAL_ANALYZER -->
<g id="node10" class="node">
<title>SOCIAL_ANALYZER</title>
<path fill="none" stroke="black" d="M142.75,-636.5C142.75,-636.5 23.25,-636.5 23.25,-636.5 17.25,-636.5 11.25,-630.5 11.25,-624.5 11.25,-624.5 11.25,-612.5 11.25,-612.5 11.25,-606.5 17.25,-600.5 23.25,-600.5 23.25,-600.5 142.75,-600.5 142.75,-600.5 148.75,-600.5 154.75,-606.5 154.75,-612.5 154.75,-612.5 154.75,-624.5 154.75,-624.5 154.75,-630.5 148.75,-636.5 142.75,-636.5"/>
<text xml:space="preserve" text-anchor="middle" x="83" y="-613.45" font-family="Times New Roman,serif" font-size="14.00">SOCIAL_ANALYZER</text>
</g>
<!-- SOCIAL_SCOUT -->
<g id="node11" class="node">
<title>SOCIAL_SCOUT</title>
<path fill="none" stroke="black" d="M128.88,-708.5C128.88,-708.5 37.12,-708.5 37.12,-708.5 31.12,-708.5 25.12,-702.5 25.12,-696.5 25.12,-696.5 25.12,-684.5 25.12,-684.5 25.12,-678.5 31.12,-672.5 37.12,-672.5 37.12,-672.5 128.88,-672.5 128.88,-672.5 134.88,-672.5 140.88,-678.5 140.88,-684.5 140.88,-684.5 140.88,-696.5 140.88,-696.5 140.88,-702.5 134.88,-708.5 128.88,-708.5"/>
<text xml:space="preserve" text-anchor="middle" x="83" y="-685.45" font-family="Times New Roman,serif" font-size="14.00">SOCIAL_SCOUT</text>
</g>
<!-- SOCIAL_DASHBOARD -->
<g id="node12" class="node">
<title>SOCIAL_DASHBOARD</title>
<path fill="none" stroke="black" d="M148.75,-780.5C148.75,-780.5 17.25,-780.5 17.25,-780.5 11.25,-780.5 5.25,-774.5 5.25,-768.5 5.25,-768.5 5.25,-756.5 5.25,-756.5 5.25,-750.5 11.25,-744.5 17.25,-744.5 17.25,-744.5 148.75,-744.5 148.75,-744.5 154.75,-744.5 160.75,-750.5 160.75,-756.5 160.75,-756.5 160.75,-768.5 160.75,-768.5 160.75,-774.5 154.75,-780.5 148.75,-780.5"/>
<text xml:space="preserve" text-anchor="middle" x="83" y="-757.45" font-family="Times New Roman,serif" font-size="14.00">SOCIAL_DASHBOARD</text>
</g>
<!-- SOCIAL_CLI -->
<g id="node13" class="node">
<title>SOCIAL_CLI</title>
<path fill="none" stroke="black" d="M117.62,-852.5C117.62,-852.5 48.38,-852.5 48.38,-852.5 42.38,-852.5 36.38,-846.5 36.38,-840.5 36.38,-840.5 36.38,-828.5 36.38,-828.5 36.38,-822.5 42.38,-816.5 48.38,-816.5 48.38,-816.5 117.62,-816.5 117.62,-816.5 123.62,-816.5 129.62,-822.5 129.62,-828.5 129.62,-828.5 129.62,-840.5 129.62,-840.5 129.62,-846.5 123.62,-852.5 117.62,-852.5"/>
<text xml:space="preserve" text-anchor="middle" x="83" y="-829.45" font-family="Times New Roman,serif" font-size="14.00">SOCIAL_CLI</text>
</g>
<!-- SOCIAL_TESTS -->
<g id="node14" class="node">
<title>SOCIAL_TESTS</title>
<path fill="none" stroke="black" d="M126.62,-924.5C126.62,-924.5 39.38,-924.5 39.38,-924.5 33.38,-924.5 27.38,-918.5 27.38,-912.5 27.38,-912.5 27.38,-900.5 27.38,-900.5 27.38,-894.5 33.38,-888.5 39.38,-888.5 39.38,-888.5 126.62,-888.5 126.62,-888.5 132.62,-888.5 138.62,-894.5 138.62,-900.5 138.62,-900.5 138.62,-912.5 138.62,-912.5 138.62,-918.5 132.62,-924.5 126.62,-924.5"/>
<text xml:space="preserve" text-anchor="middle" x="83" y="-901.45" font-family="Times New Roman,serif" font-size="14.00">SOCIAL_TESTS</text>
</g>
</g>
</svg>
