<?xml version="1.0" encoding="UTF-8" standalone="no"?>
<!DOCTYPE svg PUBLIC "-//W3C//DTD SVG 1.1//EN"
 "http://www.w3.org/Graphics/SVG/1.1/DTD/svg11.dtd">
<!-- Generated by graphviz version 14.1.1 (20251213.1925)
 -->
<!-- Title: Dependencies Pages: 1 -->
<svg width="350pt" height="717pt"
 viewBox="0.00 0.00 350.00 717.00" xmlns="http://www.w3.org/2000/svg" xmlns:xlink="http://www.w3.org/1999/xlink">
<g id="graph0" class="graph" transform="scale(1 1) rotate(0) translate(4 712.5)">
<title>Dependencies</title>
<polygon fill="white" stroke="none" points="-4,4 -4,-712.5 345.75,-712.5 345.75,4 -4,4"/>
<text xml:space="preserve" text-anchor="middle" x="170.88" y="-7.2" font-family="Times New Roman,serif" font-size="14.00">simple_social &#45; Dependencies</text>
<!-- simple_social -->
<g id="node1" class="node">
<title>simple_social</title>
<polygon fill="lightblue" stroke="black" points="91,-384.5 0,-384.5 0,-348.5 91,-348.5 91,-384.5"/>
<text xml:space="preserve" text-anchor="middle" x="45.5" y="-361.45" font-family="Times New Roman,serif" font-size="14.00">simple_social</text>
</g>
<!-- simple_http -->
<g id="node2" class="node">
<title>simple_http</title>
<polygon fill="lightblue" stroke="black" points="328.62,-708.5 248.12,-708.5 248.12,-672.5 328.62,-672.5 328.62,-708.5"/>
<text xml:space="preserve" text-anchor="middle" x="288.38" y="-685.45" font-family="Times New Roman,serif" font-size="14.00">simple_http</text>
</g>
<!-- simple_social&#45;&gt;simple_http -->
<g id="edge1" class="edge">
<title>simple_social&#45;&gt;simple_http</title>
<path fill="none" stroke="black" stroke-dasharray="5,2" d="M14.75,-384.85C14.75,-453.39 14.75,-690.5 14.75,-690.5 14.75,-690.5 236.19,-690.5 236.19,-690.5"/>
<polygon fill="black" stroke="black" points="236.19,-694 246.19,-690.5 236.19,-687 236.19,-694"/>
</g>
<!-- simple_json -->
<g id="node3" class="node">
<title>simple_json</title>
<polygon fill="lightblue" stroke="black" points="329.38,-636.5 247.38,-636.5 247.38,-600.5 329.38,-600.5 329.38,-636.5"/>
<text xml:space="preserve" text-anchor="middle" x="288.38" y="-613.45" font-family="Times New Roman,serif" font-size="14.00">simple_json</text>
</g>
<!-- simple_social&#45;&gt;simple_json -->
<g id="edge2" class="edge">
<title>simple_social&#45;&gt;simple_json</title>
<path fill="none" stroke="black" stroke-dasharray="5,2" d="M30.75,-384.62C30.75,-442.4 30.75,-618.5 30.75,-618.5 30.75,-618.5 235.47,-618.5 235.47,-618.5"/>
<polygon fill="black" stroke="black" points="235.47,-622 245.47,-618.5 235.47,-615 235.47,-622"/>
</g>
<!-- simple_sql -->
<g id="node4" class="node">
<title>simple_sql</title>
<polygon fill="lightblue" stroke="black" points="326,-564.5 250.75,-564.5 250.75,-528.5 326,-528.5 326,-564.5"/>
<text xml:space="preserve" text-anchor="middle" x="288.38" y="-541.45" font-family="Times New Roman,serif" font-size="14.00">simple_sql</text>
</g>
<!-- simple_social&#45;&gt;simple_sql -->
<g id="edge3" class="edge">
<title>simple_social&#45;&gt;simple_sql</title>
<path fill="none" stroke="black" stroke-dasharray="5,2" d="M45.75,-384.75C45.75,-430.51 45.75,-546.5 45.75,-546.5 45.75,-546.5 238.95,-546.5 238.95,-546.5"/>
<polygon fill="black" stroke="black" points="238.95,-550 248.95,-546.5 238.95,-543 238.95,-550"/>
</g>
<!-- simple_ai_client -->
<g id="node5" class="node">
<title>simple_ai_client</title>
<polygon fill="lightblue" stroke="black" points="341.38,-492.5 235.38,-492.5 235.38,-456.5 341.38,-456.5 341.38,-492.5"/>
<text xml:space="preserve" text-anchor="middle" x="288.38" y="-469.45" font-family="Times New Roman,serif" font-size="14.00">simple_ai_client</text>
</g>
<!-- simple_social&#45;&gt;simple_ai_client -->
<g id="edge4" class="edge">
<title>simple_social&#45;&gt;simple_ai_client</title>
<path fill="none" stroke="black" stroke-dasharray="5,2" d="M60.75,-384.82C60.75,-415.63 60.75,-474.5 60.75,-474.5 60.75,-474.5 223.49,-474.5 223.49,-474.5"/>
<polygon fill="black" stroke="black" points="223.49,-478 233.49,-474.5 223.49,-471 223.49,-478"/>
</g>
<!-- simple_datetime -->
<g id="node6" class="node">
<title>simple_datetime</title>
<polygon fill="lightblue" stroke="black" points="341.75,-420.5 235,-420.5 235,-384.5 341.75,-384.5 341.75,-420.5"/>
<text xml:space="preserve" text-anchor="middle" x="288.38" y="-397.45" font-family="Times New Roman,serif" font-size="14.00">simple_datetime</text>
</g>
<!-- simple_social&#45;&gt;simple_datetime -->
<g id="edge5" class="edge">
<title>simple_social&#45;&gt;simple_datetime</title>
<path fill="none" stroke="black" stroke-dasharray="5,2" d="M75.75,-384.92C75.75,-393.78 75.75,-402.5 75.75,-402.5 75.75,-402.5 223.21,-402.5 223.21,-402.5"/>
<polygon fill="black" stroke="black" points="223.21,-406 233.21,-402.5 223.21,-399 223.21,-406"/>
</g>
<!-- simple_process -->
<g id="node7" class="node">
<title>simple_process</title>
<polygon fill="lightblue" stroke="black" points="338.38,-348.5 238.38,-348.5 238.38,-312.5 338.38,-312.5 338.38,-348.5"/>
<text xml:space="preserve" text-anchor="middle" x="288.38" y="-325.45" font-family="Times New Roman,serif" font-size="14.00">simple_process</text>
</g>
<!-- simple_social&#45;&gt;simple_process -->
<g id="edge6" class="edge">
<title>simple_social&#45;&gt;simple_process</title>
<path fill="none" stroke="black" stroke-dasharray="5,2" d="M75.75,-348.08C75.75,-339.22 75.75,-330.5 75.75,-330.5 75.75,-330.5 226.47,-330.5 226.47,-330.5"/>
<polygon fill="black" stroke="black" points="226.47,-334 236.47,-330.5 226.47,-327 226.47,-334"/>
</g>
<!-- base -->
<g id="node8" class="node">
<title>base</title>
<polygon fill="lightgray" stroke="black" points="315.38,-276.5 261.38,-276.5 261.38,-240.5 315.38,-240.5 315.38,-276.5"/>
<text xml:space="preserve" text-anchor="middle" x="288.38" y="-253.45" font-family="Times New Roman,serif" font-size="14.00">base</text>
</g>
<!-- simple_social&#45;&gt;base -->
<g id="edge7" class="edge">
<title>simple_social&#45;&gt;base</title>
<path fill="none" stroke="black" stroke-dasharray="5,2" d="M60.75,-348.18C60.75,-317.37 60.75,-258.5 60.75,-258.5 60.75,-258.5 249.4,-258.5 249.4,-258.5"/>
<polygon fill="black" stroke="black" points="249.4,-262 259.4,-258.5 249.4,-255 249.4,-262"/>
</g>
<!-- time -->
<g id="node9" class="node">
<title>time</title>
<polygon fill="lightgray" stroke="black" points="315.38,-204.5 261.38,-204.5 261.38,-168.5 315.38,-168.5 315.38,-204.5"/>
<text xml:space="preserve" text-anchor="middle" x="288.38" y="-181.45" font-family="Times New Roman,serif" font-size="14.00">time</text>
</g>
<!-- simple_social&#45;&gt;time -->
<g id="edge8" class="edge">
<title>simple_social&#45;&gt;time</title>
<path fill="none" stroke="black" stroke-dasharray="5,2" d="M45.75,-348.25C45.75,-302.49 45.75,-186.5 45.75,-186.5 45.75,-186.5 249.5,-186.5 249.5,-186.5"/>
<polygon fill="black" stroke="black" points="249.5,-190 259.5,-186.5 249.5,-183 249.5,-190"/>
</g>
<!-- net -->
<g id="node10" class="node">
<title>net</title>
<polygon fill="lightgray" stroke="black" points="315.38,-132.5 261.38,-132.5 261.38,-96.5 315.38,-96.5 315.38,-132.5"/>
<text xml:space="preserve" text-anchor="middle" x="288.38" y="-109.45" font-family="Times New Roman,serif" font-size="14.00">net</text>
</g>
<!-- simple_social&#45;&gt;net -->
<g id="edge9" class="edge">
<title>simple_social&#45;&gt;net</title>
<path fill="none" stroke="black" stroke-dasharray="5,2" d="M30.75,-348.38C30.75,-290.6 30.75,-114.5 30.75,-114.5 30.75,-114.5 249.78,-114.5 249.78,-114.5"/>
<polygon fill="black" stroke="black" points="249.78,-118 259.78,-114.5 249.78,-111 249.78,-118"/>
</g>
<!-- testing -->
<g id="node11" class="node">
<title>testing</title>
<polygon fill="lightgray" stroke="black" points="315.38,-60.5 261.38,-60.5 261.38,-24.5 315.38,-24.5 315.38,-60.5"/>
<text xml:space="preserve" text-anchor="middle" x="288.38" y="-37.45" font-family="Times New Roman,serif" font-size="14.00">testing</text>
</g>
<!-- simple_social&#45;&gt;testing -->
<g id="edge10" class="edge">
<title>simple_social&#45;&gt;testing</title>
<path fill="none" stroke="black" stroke-dasharray="5,2" d="M14.75,-348.15C14.75,-279.61 14.75,-42.5 14.75,-42.5 14.75,-42.5 249.37,-42.5 249.37,-42.5"/>
<polygon fill="black" stroke="black" points="249.37,-46 259.37,-42.5 249.37,-39 249.37,-46"/>
</g>
</g>
</svg>
